<svg width="0" height="0" class="hidden">
  <symbol xmlns="http://www.w3.org/2000/svg" version="1.1" viewBox="0 0 430 170" id="car">
    <path stroke="black" stroke-width="2" d="m412.41424,106.12533c-1.56,-26.14 -24.58,-36.676 -44.86933,-46.82c-20.28933,-10.144 -73.352,-10.92533 -73.352,-10.92533c-0.58823,1.7647 -14.61363,-20.12935 -33.6893,-32.61468c-19.07567,-12.48533 -38.32775,-16.26532 -90.00791,-15.76532c-51.68016,0.5 -89.33345,32.77467 -113.91478,57.35466c-24.58,24.58133 -29.56,48.77066 -29.56,48.77066c0,0 -26.62533,-4.29067 -27.01467,8.41067c-0.392,12.704 17.752,12.09467 17.752,12.09467l0,6.74667c30.66667,0.328 36.16933,-14.94133 36.16933,-14.94133c0,0 -5.84564,9.01898 3.536,-5.776c9.38164,-14.79498 19.984,-25.13733 37.43733,-25.13733c19.36,0 36.5,11.98667 42.08133,29.81867c3.76533,12.03733 1.696,22.488 1.696,22.488l182.42133,0c0,0 -1.94267,-8.16133 2.29867,-24.112c4.36267,-16.39333 21.68,-27.08 39.524,-27.08c14.04667,0 26.59333,5.22 34.66667,15.50933c8.46667,10.79333 8.584,25.44133 8.584,25.44133l8.58,-0.41733l-0.77867,-5.08533c0,0 14.82533,3.50533 14.82533,-7.41867c0,-10.92533 -16.38533,-10.54133 -16.38533,-10.54133" id="path360" fill="${color}"></path>
    <path stroke="black" stroke-width="2" d="m126.67183,58.448c0,0 -15.22933,1.87733 -16.88,-10.708c-0.82667,-6.29266 4.53259,-19.8229 20.59116,-26.97708c16.05856,-7.15417 37.2282,-11.75582 55.9635,-10.1913l0.58824,41.76313c-0.58823,2.94117 -0.62776,5.75215 -8.54156,5.16392c-7.9138,-0.58823 -51.72133,0.94933 -51.72133,0.94933" id="path368" fill="white"></path>
    <path stroke="black" stroke-width="2" d="m218.05246,57.24533l-19.17641,-0.50933c0,0 -3.97009,0.63467 -4.29958,-5.72l-0.52485,-40.69756c13.276,-0.59135 20.98577,0.0287 30.34384,2.15913c9.35806,2.13042 20.42526,4.16666 34.77176,16.79976c14.34651,12.6331 11.72835,27.62479 0.9268,27.75279c-10.80039,0.12667 -42.04157,0.21521 -42.04157,0.21521" id="path370" fill="white"></path>
    <path stroke="black" stroke-width="2" d="m133.65067,130.57467c0,20.75272 -16.7113,37.57467 -37.32597,37.57467c-20.61341,0 -37.3247,-16.82195 -37.3247,-37.57467c0,-20.75272 16.7113,-37.57467 37.3247,-37.57467c20.61466,0 37.32597,16.82195 37.32597,37.57467" id="svg_1" fill="${color}"></path>
    <path stroke="black" stroke-width="2" d="m400.87025,131.07466c0,20.75272 -16.7113,37.57467 -37.32597,37.57467c-20.61341,0 -37.3247,-16.82195 -37.3247,-37.57467c0,-20.75272 16.7113,-37.57467 37.3247,-37.57467c20.61467,0 37.32597,16.82195 37.32597,37.57467" id="svg_2" fill="${color}"></path>
  </symbol>
  <symbol xmlns="http://www.w3.org/2000/svg" version="1.1" xml:space="preserve" viewBox="0 0 133 207" id="flag">
    <path d="m117.42535,104.136c5.1,1.536 10.20133,4.32933 15.30267,8.8c0,-5.96 0,-11.92 0,-17.88c-5.10133,-4.47067 -10.20267,-7.264 -15.30267,-8.80133c0,5.96 0,11.92 0,17.88133" id="path2384" fill="#eaedec"></path>
    <path d="m102.12135,102.87866c5.10133,-0.55867 10.20267,-0.28 15.304,1.25733c0,-5.96133 0,-11.92133 0,-17.88133c-5.10133,-1.536 -10.20267,-1.816 -15.304,-1.25733c0,5.96 0,11.92133 0,17.88133" id="path2386" fill="#2a2a2e"></path>
    <path d="m86.81868,106.64933c5.10133,-1.816 10.20267,-3.212 15.30267,-3.77067c0,-5.96 0,-11.92133 0,-17.88133c-5.1,0.55867 -10.20133,1.956 -15.30267,3.772c0,5.96 0,11.92 0,17.88" id="path2388" fill="#eaedec"></path>
    <path d="m71.51468,112.936c5.10133,-2.23467 10.20267,-4.47067 15.304,-6.28667c0,-5.96 0,-11.92 0,-17.88c-5.10133,1.816 -10.20267,4.05067 -15.304,6.28667c0,5.96 0,11.92 0,17.88" id="path2390" fill="#2a2a2e"></path>
    <path d="m56.21202,119.22266c5.10133,-1.816 10.20133,-4.052 15.30267,-6.28667c0,-5.96 0,-11.92 0,-17.88c-5.10133,2.23467 -10.20133,4.46933 -15.30267,6.28533c0,5.96 0,11.92 0,17.88133" id="path2392" fill="#eaedec"></path>
    <path d="m40.90802,122.99333c5.10133,-0.55867 10.20267,-1.95467 15.304,-3.77067c0,-5.96133 0,-11.92133 0,-17.88133c-5.10133,1.816 -10.20267,3.21333 -15.304,3.772c0,5.96 0,11.92 0,17.88" id="path2394" fill="#2a2a2e"></path>
    <path d="m25.60535,121.736c5.10133,1.53733 10.20133,1.816 15.30267,1.25733c0,-5.96 0,-11.92 0,-17.88c-5.10133,0.55867 -10.20133,0.28 -15.30267,-1.25733c0,5.96 0,11.92 0,17.88" id="path2396" fill="#eaedec"></path>
    <path d="m10.30269,112.936c5.1,4.47067 10.20133,7.264 15.30267,8.8c0,-5.96 0,-11.92 0,-17.88c-5.10133,-1.536 -10.20267,-4.33067 -15.30267,-8.8c0,5.96 0,11.92 0,17.88" id="path2398" fill="#2a2a2e"></path>
    <path d="m25.60535,85.976c-5.10133,-1.53733 -10.20267,-4.33067 -15.30267,-8.80133c0,5.96 0,11.92 0,17.88133c5.1,4.46933 10.20133,7.264 15.30267,8.8c0,-5.96 0,-11.92 0,-17.88" id="path2400" fill="#eaedec"></path>
    <path d="m40.90802,87.23333c-5.10133,0.55867 -10.20133,0.27867 -15.30267,-1.25733c0,5.96 0,11.92 0,17.88c5.10133,1.53733 10.20133,1.816 15.30267,1.25733c0,-5.96 0,-11.92 0,-17.88" id="path2402" fill="#2a2a2e"></path>
    <path d="m56.21202,83.46133c-5.10133,1.816 -10.20267,3.21333 -15.304,3.772c0,5.96 0,11.92 0,17.88c5.10133,-0.55867 10.20267,-1.956 15.304,-3.772c0,-5.96 0,-11.92 0,-17.88" id="path2404" fill="#eaedec"></path>
    <path d="m71.51468,77.17466c-5.10133,2.236 -10.20133,4.47067 -15.30267,6.28667c0,5.96 0,11.92 0,17.88c5.10133,-1.816 10.20133,-4.05067 15.30267,-6.28533c0,-5.96133 0,-11.92133 0,-17.88133" id="path2406" fill="#2a2a2e"></path>
    <path d="m86.81868,70.88933c-5.10133,1.816 -10.20267,4.05067 -15.304,6.28533c0,5.96 0,11.92133 0,17.88133c5.10133,-2.236 10.20267,-4.47067 15.304,-6.28667c0,-5.96 0,-11.92 0,-17.88" id="path2408" fill="#eaedec"></path>
    <path d="m102.12135,67.11733c-5.1,0.55867 -10.20133,1.956 -15.30267,3.772c0,5.96 0,11.92 0,17.88c5.10133,-1.816 10.20267,-3.21333 15.30267,-3.772c0,-5.96 0,-11.92 0,-17.88" id="path2410" fill="#2a2a2e"></path>
    <path d="m117.42535,68.37466c-5.10133,-1.53733 -10.20267,-1.816 -15.304,-1.25733c0,5.96 0,11.92 0,17.88c5.10133,-0.55867 10.20267,-0.27867 15.304,1.25733c0,-5.96 0,-11.92 0,-17.88" id="path2412" fill="#eaedec"></path>
    <path d="m132.72801,77.17466c-5.10133,-4.46933 -10.20267,-7.264 -15.30267,-8.8c0,5.96 0,11.92 0,17.88c5.1,1.53733 10.20133,4.33067 15.30267,8.80133c0,-5.96133 0,-11.92133 0,-17.88133" id="path2414" fill="#2a2a2e"></path>
    <path d="m117.42535,68.37466c5.1,1.536 10.20133,4.33067 15.30267,8.8c0,-5.96 0,-11.92 0,-17.88c-5.10133,-4.47067 -10.20267,-7.264 -15.30267,-8.80133c0,5.96133 0,11.92133 0,17.88133" id="path2416" fill="#eaedec"></path>
    <path d="m102.12135,67.11733c5.10133,-0.55867 10.20267,-0.28 15.304,1.25733c0,-5.96 0,-11.92 0,-17.88133c-5.10133,-1.536 -10.20267,-1.81467 -15.304,-1.25733c0,5.96133 0,11.92133 0,17.88133" id="path2418" fill="#2a2a2e"></path>
    <path d="m86.81868,70.88933c5.10133,-1.816 10.20267,-3.21333 15.30267,-3.772c0,-5.96 0,-11.92 0,-17.88133c-5.1,0.55867 -10.20133,1.956 -15.30267,3.772c0,5.96 0,11.92 0,17.88133" id="path2420" fill="#eaedec"></path>
    <path d="m71.51468,77.17466c5.10133,-2.23467 10.20267,-4.46933 15.304,-6.28533c0,-5.96133 0,-11.92133 0,-17.88133c-5.10133,1.816 -10.20267,4.05067 -15.304,6.28667c0,5.96 0,11.92 0,17.88" id="path2422" fill="#2a2a2e"></path>
    <path d="m56.21202,83.46133c5.10133,-1.816 10.20133,-4.05067 15.30267,-6.28667c0,-5.96 0,-11.92 0,-17.88c-5.10133,2.23467 -10.20133,4.46933 -15.30267,6.28667c0,5.96 0,11.92 0,17.88" id="path2424" fill="#eaedec"></path>
    <path d="m40.90802,87.23333c5.10133,-0.56 10.20267,-1.956 15.304,-3.772c0,-5.96 0,-11.92 0,-17.88c-5.10133,1.81467 -10.20267,3.212 -15.304,3.77067c0,5.96 0,11.92 0,17.88133" id="path2426" fill="#2a2a2e"></path>
    <path d="m25.60535,85.976c5.10133,1.536 10.20133,1.816 15.30267,1.25733c0,-5.96133 0,-11.92133 0,-17.88133c-5.10133,0.55867 -10.20133,0.28 -15.30267,-1.25733c0,5.96 0,11.92133 0,17.88133" id="path2428" fill="#eaedec"></path>
    <path d="m10.30269,77.17466c5.1,4.47067 10.20133,7.264 15.30267,8.80133c0,-5.96133 0,-11.92133 0,-17.88133c-5.10133,-1.536 -10.20267,-4.33067 -15.30267,-8.8c0,5.96 0,11.92 0,17.88" id="path2430" fill="#2a2a2e"></path>
    <path d="m25.60535,50.21467c-5.10133,-1.536 -10.20267,-4.33067 -15.30267,-8.8c0,5.95867 0,11.92 0,17.88c5.1,4.46933 10.20133,7.264 15.30267,8.8c0,-5.96 0,-11.92 0,-17.88" id="path2432" fill="#eaedec"></path>
    <path d="m40.90802,51.472c-5.10133,0.55867 -10.20133,0.27867 -15.30267,-1.25733c0,5.96 0,11.92 0,17.88c5.10133,1.53733 10.20133,1.816 15.30267,1.25733c0,-5.96 0,-11.92 0,-17.88" id="path2434" fill="#2a2a2e"></path>
    <path d="m56.21202,47.7c-5.10133,1.816 -10.20267,3.21333 -15.304,3.772c0,5.96 0,11.92 0,17.88c5.10133,-0.55867 10.20267,-1.956 15.304,-3.77067c0,-5.96133 0,-11.92133 0,-17.88133" id="path2436" fill="#eaedec"></path>
    <path d="m71.51468,41.41467c-5.10133,2.23467 -10.20133,4.46933 -15.30267,6.28533c0,5.96 0,11.92 0,17.88133c5.10133,-1.81733 10.20133,-4.052 15.30267,-6.28667c0,-5.96 0,-11.92133 0,-17.88" id="path2438" fill="#2a2a2e"></path>
    <path d="m86.81868,35.128c-5.10133,1.816 -10.20267,4.05067 -15.304,6.28667c0,5.95867 0,11.92 0,17.88c5.10133,-2.236 10.20267,-4.47067 15.304,-6.28667c0,-5.96 0,-11.92 0,-17.88" id="path2440" fill="#eaedec"></path>
    <path d="m102.12135,31.356c-5.1,0.55867 -10.20133,1.956 -15.30267,3.772c0,5.96 0,11.92 0,17.88c5.10133,-1.816 10.20267,-3.21333 15.30267,-3.772c0,-5.96 0,-11.92 0,-17.88" id="path2442" fill="#2a2a2e"></path>
    <path d="m117.42535,32.61333c-5.10133,-1.53733 -10.20267,-1.816 -15.304,-1.25733c0,5.96 0,11.92 0,17.88c5.10133,-0.55733 10.20267,-0.27867 15.304,1.25733c0,-5.96 0,-11.92 0,-17.88" id="path2444" fill="#eaedec"></path>
    <path d="m132.72801,41.41467c-5.10133,-4.47067 -10.20267,-7.26533 -15.30267,-8.80133c0,5.96 0,11.92 0,17.88c5.1,1.53733 10.20133,4.33067 15.30267,8.80133c0,-5.96 0,-11.92133 0,-17.88" id="path2446" fill="#2a2a2e"></path>
    <path d="m117.42535,32.61333c5.1,1.536 10.20133,4.33067 15.30267,8.80133c0,-5.96133 0,-11.92133 0,-17.88133c-5.10133,-4.47067 -10.20267,-7.264 -15.30267,-8.8c0,5.95867 0,11.92 0,17.88" id="path2448" fill="#eaedec"></path>
    <path d="m102.12135,31.356c5.10133,-0.55867 10.20267,-0.28 15.304,1.25733c0,-5.96 0,-11.92133 0,-17.88c-5.10133,-1.53733 -10.20267,-1.81733 -15.304,-1.25733c0,5.96 0,11.92 0,17.88" id="path2450" fill="#2a2a2e"></path>
    <path d="m86.81868,35.128c5.10133,-1.816 10.20267,-3.21333 15.30267,-3.772c0,-5.96 0,-11.92 0,-17.88c-5.1,0.55867 -10.20133,1.95467 -15.30267,3.772c0,5.95867 0,11.92 0,17.88" id="path2452" fill="#eaedec"></path>
    <path d="m71.51468,41.41467c5.10133,-2.236 10.20267,-4.47067 15.304,-6.28667c0,-5.96 0,-11.92133 0,-17.88c-5.10133,1.81467 -10.20267,4.05067 -15.304,6.28533c0,5.96 0,11.92 0,17.88133" id="path2454" fill="#2a2a2e"></path>
    <path d="m56.21202,47.7c5.10133,-1.816 10.20133,-4.05067 15.30267,-6.28533c0,-5.96133 0,-11.92133 0,-17.88133c-5.10133,2.23467 -10.20133,4.47067 -15.30267,6.28533c0,5.96133 0,11.92133 0,17.88133" id="path2456" fill="#eaedec"></path>
    <path d="m40.90802,51.472c5.10133,-0.55867 10.20267,-1.956 15.304,-3.772c0,-5.96 0,-11.92 0,-17.88133c-5.10133,1.81733 -10.20267,3.21333 -15.304,3.772c0,5.96133 0,11.92133 0,17.88133" id="path2458" fill="#2a2a2e"></path>
    <path d="m25.60535,50.21467c5.10133,1.536 10.20133,1.816 15.30267,1.25733c0,-5.96 0,-11.92 0,-17.88133c-5.10133,0.55867 -10.20133,0.28 -15.30267,-1.25733c0,5.96 0,11.92133 0,17.88133" id="path2460" fill="#eaedec"></path>
    <path d="m10.30269,41.41467c5.1,4.46933 10.20133,7.264 15.30267,8.8c0,-5.96 0,-11.92133 0,-17.88133c-5.10133,-1.536 -10.20267,-4.32933 -15.30267,-8.8c0,5.96 0,11.92 0,17.88133" id="path2462" fill="#2a2a2e"></path>
    <path d="m2.87335,9.27333l7.29867,0l0,193.48799c0,2.016 -1.63467,3.64933 -3.64933,3.64933c-2.016,0 -3.64933,-1.63333 -3.64933,-3.64933l0,-193.48799" id="path2464" fill="${color}"></path>
    <path d="m2.87335,16.73733c1.04133,0.70533 2.29733,1.11733 3.64933,1.11733c1.352,0 2.608,-0.412 3.64933,-1.11733l0,-7.464l-7.29867,0l0,7.464" id="path2466" fill="${color}"></path>
    <path d="m13.04535,6.52267c0,-3.60267 -2.92,-6.52267 -6.52267,-6.52267c-3.60267,0 -6.52267,2.92 -6.52267,6.52267c0,3.60267 2.92,6.52267 6.52267,6.52267c3.60267,0 6.52267,-2.92 6.52267,-6.52267" id="path2468" fill="${color}"></path>
  </symbol>
</svg>